<svg xmlns="http://www.w3.org/2000/svg" xmlns:xlink="http://www.w3.org/1999/xlink" width="780.51" height="567.641" viewBox="0 0 780.51 567.641">
  <defs>
    <linearGradient id="linear-gradient" x1="0.034" y1="1" x2="0.034" gradientUnits="objectBoundingBox">
      <stop offset="0" stop-color="gray" stop-opacity="0.251"/>
      <stop offset="0.54" stop-color="gray" stop-opacity="0.122"/>
      <stop offset="1" stop-color="gray" stop-opacity="0.102"/>
    </linearGradient>
    <linearGradient id="linear-gradient-2" x1="0.5" y1="1" x2="0.5" y2="0" xlink:href="#linear-gradient"/>
  </defs>
  <g id="undraw_exploring_1l7f" transform="translate(0.004 -0.019)">
    <path id="Path_106" data-name="Path 106" d="M503.963,354.412h0a101.644,101.644,0,0,0-53.8,15.316A102.081,102.081,0,0,0,348.086,268.407h0a101.813,101.813,0,0,0-35.577,6.379v-24.7A102.081,102.081,0,0,0,210.421,148h0A102.081,102.081,0,0,0,108.34,250.081V521h497.7v-64.5A102.081,102.081,0,0,0,503.963,354.412Z" transform="translate(-70.456 -80.61)" fill="#cf4e74" opacity="0.1"/>
    <path id="Path_107" data-name="Path 107" d="M821.67,631.492S836,609.023,837.7,599.427a123.7,123.7,0,0,1,5-18.427" transform="translate(-272.536 -203.275)" fill="none" stroke="#535461" stroke-miterlimit="10" stroke-width="2"/>
    <path id="Path_108" data-name="Path 108" d="M851.988,607.78l-8.987.767S847.766,616.8,851.988,607.78Z" transform="translate(-278.579 -210.862)" fill="#cf4e74"/>
    <path id="Path_109" data-name="Path 109" d="M833.457,600.82l7.167,5.734S831.35,610.223,833.457,600.82Z" transform="translate(-275.787 -208.89)" fill="#cf4e74"/>
    <path id="Path_110" data-name="Path 110" d="M853.94,596.8l-8.12,1.089S852.98,603.709,853.94,596.8Z" transform="translate(-279.378 -207.751)" fill="#cf4e74"/>
    <path id="Path_111" data-name="Path 111" d="M838.346,592.78l5.361,3.763S837.2,599.309,838.346,592.78Z" transform="translate(-277.222 -206.612)" fill="#cf4e74"/>
    <path id="Path_112" data-name="Path 112" d="M848.66,587.434s6.658-1.763,7.619-1.376.387,4.6-2.3,4.795S848.66,587.434,848.66,587.434Z" transform="translate(-280.183 -204.692)" fill="#cf4e74"/>
    <path id="Path_113" data-name="Path 113" d="M841.779,581s4.221,4.028,4.415,5.017-3.455,3.261-5.375,0A3.508,3.508,0,0,1,841.779,581Z" transform="translate(-277.774 -203.275)" fill="#cf4e74"/>
    <circle id="Ellipse_37" data-name="Ellipse 37" cx="1.921" cy="1.921" r="1.921" transform="translate(569.954 376.184)" fill="#ffd037"/>
    <circle id="Ellipse_38" data-name="Ellipse 38" cx="1.921" cy="1.921" r="1.921" transform="translate(566.499 375.224)" fill="#ffd037"/>
    <path id="Path_114" data-name="Path 114" d="M706.884,335.984c-7.167,7.246-7.6,18.355-7.6,18.355s11.1-.631,18.24-7.884,7.6-18.355,7.6-18.355S714.023,328.745,706.884,335.984Z" transform="translate(-237.864 -131.631)" fill="#cf4e74" opacity="0.1"/>
    <path id="Path_115" data-name="Path 115" d="M624.728,262.308c2.53,9.855,11.8,15.983,11.8,15.983s5.182-9.84,2.659-19.7S627.38,242.62,627.38,242.62,622.22,252.46,624.728,262.308Z" transform="translate(-216.55 -107.415)" fill="#cf4e74" opacity="0.1"/>
    <path id="Path_116" data-name="Path 116" d="M802.841,397.784c-7.167,7.246-7.611,18.355-7.611,18.355s11.1-.631,18.24-7.884,7.611-18.355,7.611-18.355S809.98,390.538,802.841,397.784Z" transform="translate(-265.046 -149.138)" fill="#cf4e74" opacity="0.1"/>
    <path id="Path_117" data-name="Path 117" d="M845.672,480.909c-.831,10.134,5.927,18.964,5.927,18.964s8.12-7.6,8.952-17.738-5.927-18.964-5.927-18.964S846.5,470.774,845.672,480.909Z" transform="translate(-279.316 -169.895)" fill="#cf4e74" opacity="0.1"/>
    <path id="Path_118" data-name="Path 118" d="M1076.6,414.989c-.832,10.134,5.934,18.964,5.934,18.964s8.113-7.6,8.944-17.739-5.927-18.964-5.927-18.964S1077.433,404.869,1076.6,414.989Z" transform="translate(-344.737 -151.22)" fill="#cf4e74" opacity="0.1"/>
    <path id="Path_119" data-name="Path 119" d="M113.013,647.208s318.455-60.691,669.406,0S-61.362,698.589,113.013,647.208Z" transform="translate(-66.823 -214.39)" fill="#cf4e74"/>
    <path id="Path_120" data-name="Path 120" d="M352.48,662.4c.566,7.253-6.508,12.736-13.273,15.395s-14.485,4.3-19.15,9.862a9.052,9.052,0,0,0-2.329,5.2c-.215,4.25,3.741,7.475,7.547,9.367,10.894,5.4,23.415,6.063,35.391,8.163s24.59,6.364,31.471,16.391c3.189,4.659,4.924,10.285,8.5,14.693,5.734,7,15.56,9.754,24.519,8.543s17.129-5.891,24.167-11.568c7.884-6.357,15.151-14.334,24.963-16.857,16.886-4.379,32.668,8.7,48.8,15.352,19.48,8.027,41.669,6.68,62.131,1.641,4.587-1.132,9.231-2.48,13.137-5.139,4.508-3.06,7.74-7.647,11.962-11.087,10.478-8.543,25.207-8.866,38.7-8.787l39.2.222c7.748.043,16-.057,22.483-4.3,6.644-4.358,10.156-12.657,9.733-20.591s-4.4-15.416-9.969-21.085c-12.378-12.6-31.055-16.183-48.557-18.634-84.228-11.632-169.645-10.679-254.69-9.711-14.227.165-28.525.315-42.644,2.286-3.5.487-18.1,1.211-19.48,4.931C343.793,650.184,352.143,658.075,352.48,662.4Z" transform="translate(-129.771 -219.688)" fill="#cf4e74"/>
    <ellipse id="Ellipse_39" data-name="Ellipse 39" cx="28.819" cy="4.874" rx="28.819" ry="4.874" transform="translate(95.006 500.361)" fill="#cf4e74"/>
    <ellipse id="Ellipse_40" data-name="Ellipse 40" cx="28.819" cy="4.874" rx="28.819" ry="4.874" transform="translate(117.912 540.798)" fill="#cf4e74"/>
    <ellipse id="Ellipse_41" data-name="Ellipse 41" cx="19.301" cy="3.261" rx="19.301" ry="3.261" transform="translate(37.884 474.918)" fill="#cf4e74"/>
    <ellipse id="Ellipse_42" data-name="Ellipse 42" cx="19.301" cy="3.261" rx="19.301" ry="3.261" transform="translate(195.108 516.695)" fill="#cf4e74"/>
    <ellipse id="Ellipse_43" data-name="Ellipse 43" cx="19.301" cy="3.261" rx="19.301" ry="3.261" transform="translate(609.122 489.61)" fill="#cf4e74"/>
    <ellipse id="Ellipse_44" data-name="Ellipse 44" cx="19.301" cy="3.261" rx="19.301" ry="3.261" transform="translate(487.26 521.439)" fill="#cf4e74"/>
    <ellipse id="Ellipse_45" data-name="Ellipse 45" cx="28.819" cy="4.874" rx="28.819" ry="4.874" transform="translate(681.674 500.361)" fill="#cf4e74"/>
    <ellipse id="Ellipse_46" data-name="Ellipse 46" cx="46.55" cy="7.869" rx="46.55" ry="7.869" transform="translate(547.937 524.7)" fill="#cf4e74"/>
    <ellipse id="Ellipse_47" data-name="Ellipse 47" cx="65.048" cy="10.994" rx="65.048" ry="10.994" transform="translate(309.23 545.671)" fill="#cf4e74"/>
    <path id="Path_121" data-name="Path 121" d="M1046.178,525.23a34.782,34.782,0,0,0-6.343,36.187c8.228,21.616-14.1,57.58-14.1,57.58l.717-.115c29.922-5.282,44.794-39.512,28.152-64.934C1048.385,544.5,1043.3,533.408,1046.178,525.23Z" transform="translate(-330.345 -187.476)" fill="#cf4e74"/>
    <path id="Path_122" data-name="Path 122" d="M1046.178,525.23s-8.221,17.86,0,32.431,1.433,55.459-20.448,61.336" transform="translate(-330.345 -187.476)" fill="none" stroke="#535461" stroke-miterlimit="10" stroke-width="1"/>
    <path id="Path_123" data-name="Path 123" d="M1070.662,607.378s-16.627-2.645-18.14,12.256S1020.55,636.6,1020.55,636.6l.573.38c25.142,16.484,49.18,10.514,45.561-11.4C1065.308,617.427,1065.445,609.242,1070.662,607.378Z" transform="translate(-328.878 -210.696)" fill="#cf4e74"/>
    <path id="Path_124" data-name="Path 124" d="M1070.662,607.378s-16.627-2.645-18.14,12.256S1020.55,636.6,1020.55,636.6l.573.38c25.142,16.484,49.18,10.514,45.561-11.4C1065.308,617.427,1065.445,609.242,1070.662,607.378Z" transform="translate(-328.878 -210.696)" fill="#f5f5f5" opacity="0.2"/>
    <path id="Path_125" data-name="Path 125" d="M1070.662,607.45s-12.9,2.867-11.847,14.571-19.165,25.8-38.265,14.65" transform="translate(-328.878 -210.768)" fill="none" stroke="#535461" stroke-miterlimit="10" stroke-width="1"/>
    <path id="Path_126" data-name="Path 126" d="M816.687,608.615s-4.451-15.108.831-26.232a23.845,23.845,0,0,0,1.935-14.972,40.636,40.636,0,0,0-2.15-7.031" transform="translate(-270.628 -197.434)" fill="none" stroke="#535461" stroke-miterlimit="10" stroke-width="2"/>
    <path id="Path_127" data-name="Path 127" d="M820.218,549.244c0,1.856-3.354,7.224-3.354,7.224s-3.354-5.368-3.354-7.224a3.354,3.354,0,1,1,6.708,0Z" transform="translate(-270.225 -193.329)" fill="#cf4e74"/>
    <path id="Path_128" data-name="Path 128" d="M827.937,562.81c-1,1.555-6.737,4.236-6.737,4.236s.1-6.329,1.111-7.884a3.354,3.354,0,1,1,5.626,3.648Z" transform="translate(-272.403 -196.631)" fill="#cf4e74"/>
    <path id="Path_129" data-name="Path 129" d="M827.116,586.84c-1.648.831-7.955.258-7.955.258s3.283-5.418,4.938-6.25a3.354,3.354,0,0,1,3.017,5.992Z" transform="translate(-271.826 -203.13)" fill="#cf4e74"/>
    <path id="Path_130" data-name="Path 130" d="M822.769,605.358c-1.491,1.1-7.769,1.584-7.769,1.584s2.322-5.891,3.813-7a3.354,3.354,0,1,1,3.985,5.39Z" transform="translate(-270.647 -208.433)" fill="#cf4e74"/>
    <path id="Path_131" data-name="Path 131" d="M810.987,569.051c1.333,1.29,7.518,2.63,7.518,2.63s-1.512-6.149-2.867-7.439a3.354,3.354,0,0,0-4.673,4.809Z" transform="translate(-269.236 -198.278)" fill="#cf4e74"/>
    <path id="Path_132" data-name="Path 132" d="M805.706,590.414c1.656.839,7.963.258,7.963.258s-3.29-5.411-4.938-6.243a3.354,3.354,0,1,0-3.024,5.984Z" transform="translate(-267.467 -204.131)" fill="#cf4e74"/>
    <path id="Path_133" data-name="Path 133" d="M804.018,612.207c1.491,1.1,7.8,1.6,7.8,1.6s-2.322-5.884-3.813-6.988a3.354,3.354,0,1,0-3.985,5.39Z" transform="translate(-267.119 -210.379)" fill="#cf4e74"/>
    <path id="Path_134" data-name="Path 134" d="M803.87,622.473s8.135-1.627,10.3-3.791,11.933-5.97,13.015-3.254,14.635,11.926,5.418,13.553-21.688,2.15-24.368,1.082S803.87,622.473,803.87,622.473Z" transform="translate(-267.494 -212.761)" fill="#a8a8a8"/>
    <path id="Path_135" data-name="Path 135" d="M832.654,631.1c-9.217,1.627-21.688,2.15-24.368,1.089-2.064-.831-3.5-4.795-4.064-6.644l-.272.057s1.627,6.508,4.3,7.59,15.18.545,24.368-1.082c2.666-.473,3.426-1.57,3.139-2.967C835.521,630.058,834.611,630.761,832.654,631.1Z" transform="translate(-267.517 -215.896)" opacity="0.2"/>
    <path id="Path_136" data-name="Path 136" d="M720.9,683.9s24.676-4.938,31.263-11.518,36.194-18.1,39.483-9.876,44.436,36.2,16.484,41.132-65.815,6.586-74.043,3.29S720.9,683.9,720.9,683.9Z" transform="translate(-243.989 -225.555)" fill="#a8a8a8"/>
    <path id="Path_137" data-name="Path 137" d="M808.1,710.1c-27.952,4.938-65.815,6.579-74.043,3.29-6.264-2.509-10.614-14.549-12.335-20.147l-.824.172s4.938,19.738,13.159,23.028,46.07,1.648,74.043-3.29c8.07-1.433,10.378-4.766,9.511-9C816.925,706.908,814.144,709.036,808.1,710.1Z" transform="translate(-243.989 -235.072)" opacity="0.2"/>
    <path id="Path_138" data-name="Path 138" d="M120.312,553.271c10.987,16.219,7.482,74.28,7.482,74.28s-55.187-18.276-66.21-34.5a35.468,35.468,0,1,1,58.729-39.786Z" transform="translate(-55.48 -191.006)" fill="#cf4e74"/>
    <path id="Path_139" data-name="Path 139" d="M120.312,553.271c10.987,16.219,7.482,74.28,7.482,74.28s-55.187-18.276-66.21-34.5a35.468,35.468,0,1,1,58.729-39.786Z" transform="translate(-55.48 -191.006)" opacity="0.1"/>
    <path id="Path_140" data-name="Path 140" d="M77.51,546.27s41.383,31.944,56.742,83.755" transform="translate(-61.722 -193.436)" fill="none" stroke="#535461" stroke-miterlimit="10" stroke-width="1"/>
    <path id="Path_141" data-name="Path 141" d="M164.771,601.672s-29.385-5.017-9.281,43.655c0,0,20.419-7.783,22.01-27.149a15.452,15.452,0,0,0-12.292-16.427Z" transform="translate(-81.821 -209.09)" fill="#cf4e74"/>
    <path id="Path_142" data-name="Path 142" d="M167.981,601.65s5.6,26.92-9.711,43.719" transform="translate(-84.601 -209.125)" fill="none" stroke="#535461" stroke-miterlimit="10" stroke-width="1"/>
    <path id="Path_143" data-name="Path 143" d="M1017.5,600.3s3.935,5.153-1.82,12.9-10.5,14.334-8.6,19.186c0,0,8.679-14.442,15.768-14.642S1025.272,608.987,1017.5,600.3Z" transform="translate(-324.942 -208.743)" fill="#cf4e74"/>
    <path id="Path_144" data-name="Path 144" d="M1017.594,600.3a6.628,6.628,0,0,1,.8,1.62c6.895,8.1,10.564,15.66,3.942,15.846-6.178.179-13.617,11.216-15.359,14a6.636,6.636,0,0,0,.215.638s8.679-14.442,15.768-14.642S1025.364,608.987,1017.594,600.3Z" transform="translate(-325.033 -208.743)" opacity="0.1"/>
    <path id="Path_145" data-name="Path 145" d="M1031.64,609c0,1.813-.208,3.283-.459,3.283s-.452-1.433-.452-3.283.258-.96.509-.96S1031.64,607.183,1031.64,609Z" transform="translate(-331.762 -210.874)" fill="#ffd037"/>
    <path id="Path_146" data-name="Path 146" d="M1034.273,611.99c-1.591.867-2.974,1.39-3.1,1.168s1.075-1.1,2.666-1.964.96-.236,1.082,0S1035.864,611.123,1034.273,611.99Z" transform="translate(-331.886 -211.703)" fill="#ffd037"/>
    <path id="Path_147" data-name="Path 147" d="M989.274,600.3s-3.935,5.153,1.813,12.9,10.5,14.334,8.6,19.186c0,0-8.687-14.442-15.768-14.642S981.5,608.987,989.274,600.3Z" transform="translate(-317.512 -208.743)" fill="#cf4e74"/>
    <path id="Path_148" data-name="Path 148" d="M989.27,600.3a6.333,6.333,0,0,0-.8,1.62c-6.895,8.1-10.572,15.66-3.942,15.846,6.171.179,13.617,11.216,15.352,14a6.6,6.6,0,0,1-.208.638s-8.687-14.442-15.768-14.642S981.494,608.987,989.27,600.3Z" transform="translate(-317.508 -208.743)" opacity="0.1"/>
    <path id="Path_149" data-name="Path 149" d="M982.56,609c0,1.813.2,3.283.452,3.283s.451-1.433.451-3.283-.251-.96-.5-.96S982.56,607.183,982.56,609Z" transform="translate(-318.115 -210.874)" fill="#ffd037"/>
    <path id="Path_150" data-name="Path 150" d="M978.669,611.99c1.591.867,2.981,1.39,3.1,1.168s-1.075-1.1-2.666-1.964-.968-.236-1.082,0S977.078,611.123,978.669,611.99Z" transform="translate(-316.74 -211.703)" fill="#ffd037"/>
    <path id="Path_151" data-name="Path 151" d="M984.31,641.809s11.009-.344,14.334-2.7,16.936-5.182,17.76-1.4,16.542,18.842,4.114,18.943-28.876-1.935-32.187-3.949S984.31,641.809,984.31,641.809Z" transform="translate(-318.611 -218.817)" fill="#a8a8a8"/>
    <path id="Path_152" data-name="Path 152" d="M1020.726,657.649c-12.428.1-28.876-1.935-32.187-3.949-2.523-1.534-3.526-7.045-3.863-9.59h-.366s.717,8.873,4.006,10.894,19.76,4.049,32.187,3.949c3.584,0,4.831-1.3,4.759-3.189C1024.761,656.932,1023.4,657.649,1020.726,657.649Z" transform="translate(-318.611 -221.154)" opacity="0.2"/>
    <path id="Path_153" data-name="Path 153" d="M1052.893,742.552a8.342,8.342,0,0,0,2.745-4.15,3.7,3.7,0,0,0-1.921-4.221c-1.763-.674-3.641.545-5.074,1.785s-3.06,2.638-4.931,2.379a7.526,7.526,0,0,0,2.322-7.031,2.946,2.946,0,0,0-.645-1.434c-.982-1.039-2.752-.595-3.928.229-3.727,2.623-4.766,7.683-4.787,12.241a23.006,23.006,0,0,1-.065-5.017c-.007-1.663-.473-3.584-1.9-4.465a5.732,5.732,0,0,0-2.867-.717c-1.677-.057-3.584.108-4.687,1.333-1.433,1.527-1.053,4.078.179,5.734s3.118,2.724,4.852,3.885a10.843,10.843,0,0,1,3.469,3.3,3.621,3.621,0,0,1,.251.588h10.507A29.194,29.194,0,0,0,1052.893,742.552Z" transform="translate(-330.488 -245.28)" fill="#cf4e74"/>
    <path id="Path_154" data-name="Path 154" d="M360.726,763.32a8.408,8.408,0,0,0,2.752-4.15,3.718,3.718,0,0,0-1.921-4.221c-1.763-.674-3.648.552-5.074,1.785s-3.068,2.645-4.938,2.38a7.5,7.5,0,0,0,2.322-7.031,2.953,2.953,0,0,0-.645-1.433c-.982-1.046-2.752-.6-3.928.222-3.727,2.623-4.766,7.69-4.78,12.241a22.569,22.569,0,0,1-.072-5.017c-.007-1.663-.473-3.583-1.892-4.465a5.734,5.734,0,0,0-2.867-.674c-1.677-.065-3.541.107-4.687,1.333-1.433,1.519-1.054,4.071.186,5.734s3.118,2.731,4.845,3.885a10.751,10.751,0,0,1,3.469,3.3,3.46,3.46,0,0,1,.258.595h10.478a29.22,29.22,0,0,0,6.493-4.487Z" transform="translate(-134.405 -251.162)" fill="#cf4e74"/>
    <path id="Path_155" data-name="Path 155" d="M270.691,632.308s-10.077-34.194,1.885-59.365a54.04,54.04,0,0,0,4.372-33.879,91.2,91.2,0,0,0-4.8-15.9" transform="translate(-115.325 -186.889)" fill="none" stroke="#535461" stroke-miterlimit="10" stroke-width="2"/>
    <path id="Path_156" data-name="Path 156" d="M278.68,498c0,4.186-7.59,16.341-7.59,16.341S263.5,502.157,263.5,498a7.59,7.59,0,0,1,15.18,0Z" transform="translate(-114.412 -177.612)" fill="#cf4e74"/>
    <path id="Path_157" data-name="Path 157" d="M296.152,528.729c-2.279,3.512-15.252,9.59-15.252,9.59s.229-14.334,2.508-17.839a7.59,7.59,0,1,1,12.743,8.249Z" transform="translate(-119.341 -185.148)" fill="#cf4e74"/>
    <path id="Path_158" data-name="Path 158" d="M294.291,583.021c-3.741,1.885-18.011.581-18.011.581s7.439-12.241,11.181-14.133a7.589,7.589,0,1,1,6.831,13.554Z" transform="translate(-118.032 -199.777)" fill="#cf4e74"/>
    <path id="Path_159" data-name="Path 159" d="M284.423,624.934c-3.369,2.487-17.653,3.584-17.653,3.584s5.261-13.324,8.6-15.818a7.59,7.59,0,1,1,9.023,12.184Z" transform="translate(-115.338 -211.768)" fill="#cf4e74"/>
    <path id="Path_160" data-name="Path 160" d="M257.756,542.722c3,2.924,17.008,5.949,17.008,5.949s-3.433-13.911-6.45-16.828a7.585,7.585,0,1,0-10.571,10.88Z" transform="translate(-112.129 -188.741)" fill="#cf4e74"/>
    <path id="Path_161" data-name="Path 161" d="M245.931,591.164c3.741,1.892,18.011.588,18.011.588S256.5,579.5,252.761,577.618a7.585,7.585,0,1,0-6.83,13.546Z" transform="translate(-108.253 -202.086)" fill="#cf4e74"/>
    <path id="Path_162" data-name="Path 162" d="M242.025,640.427c3.34,2.494,17.674,3.641,17.674,3.641s-5.261-13.331-8.6-15.818a7.59,7.59,0,1,0-9.023,12.184Z" transform="translate(-107.385 -216.173)" fill="#cf4e74"/>
    <path id="Path_163" data-name="Path 163" d="M278.68,498c0,4.186-7.59,16.341-7.59,16.341S263.5,502.157,263.5,498a7.59,7.59,0,0,1,15.18,0Z" transform="translate(-114.412 -177.612)" fill="#fc6681"/>
    <path id="Path_164" data-name="Path 164" d="M296.152,528.729c-2.279,3.512-15.252,9.59-15.252,9.59s.229-14.334,2.508-17.839a7.59,7.59,0,1,1,12.743,8.249Z" transform="translate(-119.341 -185.148)" fill="#fc6681"/>
    <path id="Path_165" data-name="Path 165" d="M294.291,583.021c-3.741,1.885-18.011.581-18.011.581s7.439-12.241,11.181-14.133a7.589,7.589,0,1,1,6.831,13.554Z" transform="translate(-118.032 -199.777)" fill="#fc6681"/>
    <path id="Path_166" data-name="Path 166" d="M284.423,624.934c-3.369,2.487-17.653,3.584-17.653,3.584s5.261-13.324,8.6-15.818a7.59,7.59,0,1,1,9.023,12.184Z" transform="translate(-115.338 -211.768)" fill="#fc6681"/>
    <path id="Path_167" data-name="Path 167" d="M257.756,542.722c3,2.924,17.008,5.949,17.008,5.949s-3.433-13.911-6.45-16.828a7.585,7.585,0,1,0-10.571,10.88Z" transform="translate(-112.129 -188.741)" fill="#fc6681"/>
    <path id="Path_168" data-name="Path 168" d="M245.931,591.164c3.741,1.892,18.011.588,18.011.588S256.5,579.5,252.761,577.618a7.585,7.585,0,1,0-6.83,13.546Z" transform="translate(-108.253 -202.086)" fill="#fc6681"/>
    <path id="Path_169" data-name="Path 169" d="M242.025,640.427c3.34,2.494,17.674,3.641,17.674,3.641s-5.261-13.331-8.6-15.818a7.59,7.59,0,1,0-9.023,12.184Z" transform="translate(-107.385 -216.173)" fill="#fc6681"/>
    <path id="Path_170" data-name="Path 170" d="M239.05,667.712s12.263-2.437,15.531-5.683,17.989-8.93,19.623-4.867,22.075,17.853,8.178,20.29-32.7,3.247-36.8,1.627S239.05,667.712,239.05,667.712Z" transform="translate(-107.485 -224.452)" fill="#a8a8a8"/>
    <path id="Path_171" data-name="Path 171" d="M282.382,680.641c-13.9,2.43-32.7,3.247-36.8,1.62-3.111-1.233-5.275-7.167-6.128-9.941l-.409.086s2.451,9.74,6.536,11.367,22.892.81,36.8-1.627c4.006-.717,5.153-2.351,4.723-4.444C286.761,679.064,285.364,680.118,282.382,680.641Z" transform="translate(-107.485 -229.145)" opacity="0.2"/>
    <path id="Path_172" data-name="Path 172" d="M1000.611,107.753V246.629c0,23.021-28.417,34.094-43.841,17l-.366-.4c-4.974-5.569-11.783-12.342-18.634-9.375-2.15.91-3.741,2.645-5.633,3.963a82.128,82.128,0,0,1,3.534,9.317c5.913,19.58,1.3,40.738-5.017,60.2s-14.392,38.745-15.474,59.179c-.516,9.812.609,19.631,1.727,29.385,2.15,18.534,4.35,37.426,12.1,54.4,4.243,9.317,10.242,18.677,8.973,28.8a292.975,292.975,0,0,1-98.741-12.542c22.118-22.268,22.089-57.6,20.613-88.951q-1.77-37.871-3.584-75.756c-.344-7.4-.76-15.051-4.135-21.645-4.58-8.98-14.126-14.614-23.96-16.864s-20.068-1.641-30.152-1a16.148,16.148,0,0,1,2.1-11.432,143.757,143.757,0,0,0,49.661,11.647c2.15.107,4.565.086,6.164-1.369s1.842-3.856,1.942-6.02a131.8,131.8,0,0,0-3.383-37.312c-.552.136-1.1.272-1.656.444-8.429,2.551-16.061,8.851-24.841,8.185-12.27-.932-19.545-14.678-31.105-18.9-8.859-3.24-18.6-.38-27.88,1.3s-20.283,1.57-26.382-5.626c-7.7-9.088-2.867-23.5-7.884-34.323-7.088-15.409-28.547-15.7-45.389-13.617a53.4,53.4,0,0,1,28.446-21.4c-5.963-10.7-26.92-10.22-26.8-22.469.043-4.752,3.827-8.529,7.339-11.733l15.768-14.377-27.9-10.536c-6.25-2.358-13.23-5.454-15.316-11.8-2.035-6.221,1.663-12.9,6.264-17.567l.122-.115A39.1,39.1,0,0,1,705.026,54H946.865a53.752,53.752,0,0,1,53.746,53.746Z" transform="translate(-229.663 -53.98)" fill="#cf4e74" opacity="0.1"/>
    <path id="Path_173" data-name="Path 173" d="M363.641,555.662s16.42,4.508,24.332-1.484,11.338-4.064,11.338-4.064,18.857-1.046,20.4-5.5-7.232-20.648-7.232-20.656c-.631-1.4-1.534-3.261-1.949-3.261l.086-6.83h0l2.731-28.568c6.307-16.162.115-37.054.115-37.054l-1.125-5.182a13,13,0,0,1,1.068-8.6l11.467-23.042a34.227,34.227,0,0,1,2.15-4.408c.717-1.319,1.67-2.946,2.867-4.9.351-.552.717-1.14,1.118-1.749,1.39-2.15,3.075-4.6,5.1-7.418,5.074-7.024,7.74-15.768,9.117-22.29l.609,2.028h.265l.229.043h.043l.294.043h.115l3.519,44.823c.222,17.481,6.637,27.156,6.637,27.156l-.889,38.588c1.211,9.317-1.433,21.695-2.645,26.633l-2.781,6.264a7.54,7.54,0,0,0-4.085,5.691c-.552,4.623-5.418,14.585-5.418,14.585-1.777,2.458-5.87,8.909-5.87,8.909s-1.992,6.157-.774,8.464,11.166,2.093,11.166,2.093c11.4,2.523,20.132-3.634,19.58-7.812s1.763-5.275,1.763-5.275c4.537-1.433,4.092-4.508,4.092-4.508a28.2,28.2,0,0,0-3.426-18.362l-.717,1.663a25.084,25.084,0,0,1,1.369-9.8c-.143.1-.28.2-.423.287l-.129.086h-.043c.717-6.3,7.339-17.982,7.339-17.982,12.184-21.329,7.74-50.248,7.74-50.248l-1.863-8.98-.108-3.4a113.238,113.238,0,0,1,1.8-24.21c.652-3.533,1.326-7.8,1.849-12.521,1.089-9.948,4.616-20.211,6.235-24.554l.487-.086h.065l2.007-.351h.129s.387-2.1.717-5.676c.194-2.279.351-5.167.351-8.486a95.358,95.358,0,0,0-4.53-29.55l.358-.53s.874-1.175,2.458-3.218h0c2.924-3.705,7.461-9.317,13.066-15.7,10.034-11.432,7.074-23.013,7.074-23.013s-7.224-26.518-10.471-42.515a48.428,48.428,0,0,0-7.963-18.935,37.274,37.274,0,0,0,1-7.676c.222-4.73.05-9.661-2.071-13.9s-6.658-7.611-11.388-7.038a4.372,4.372,0,0,1-2.043,0,3.075,3.075,0,0,1-1.34-1.175c-2.774-3.813-2.953-8.945-2.093-13.574s2.637-9.059,3.426-13.7.437-9.8-2.523-13.474c-3.469-4.3-9.525-5.533-14.04-8.772-3.168-2.279-5.547-5.554-8.887-7.568s-6.45-1.254-10.1-.487c-6.106,1.283-11.9,1.871-17.674,4.5a47.038,47.038,0,0,0-15.409,11.2,14.707,14.707,0,0,0-3.433,5.425c-1.433,4.745,1.369,9.8.781,14.721-.416,3.483-2.473,6.522-4.107,9.633s-2.867,6.809-1.591,10.077c2.007,5.081,8.6,6.164,13.345,8.873a4.035,4.035,0,0,1,1.584,1.369c1.175,2.057-1.233,4.193-2.745,6.02a9.074,9.074,0,0,0-1.8,3.648,13.051,13.051,0,0,0-7.812,9.432c-1.62,7.239.867,16.377,3.06,22.411-2.394,13.453.717,18.756,3.01,20.785a11.467,11.467,0,0,1,4,7.884v.251c.151,2.451.409,4.881.753,7.31h0c-.079-.566-.158-1.168-.2-1.433-1.878,3.476-5.447,12.342-7.461,27.235a81.912,81.912,0,0,1-1.82,9.5,52.1,52.1,0,0,0-1.527,16.979l.366,4.838a1.434,1.434,0,0,1-.975-.322l2.523,4.623v7.726a28.782,28.782,0,0,1-1.914,10.278c-.179.48-.38.953-.588,1.433a8.364,8.364,0,0,0-.846,4.229c-5.44,8.292-17.889,54.9-17.889,54.9-6.751,15.28.552,25.178.552,25.178s3.541,42.551,4.2,44.744,2.1,28.145,2.1,28.145h0v2.064a5.162,5.162,0,0,0-1.226-.358c-5.92-.33-7.525,9.016-7.525,9.016l-12.105,11.6s-5.533-.932-13.66,5.167S363.641,555.662,363.641,555.662ZM484.506,309.774v-.129l-.33.194h0l-.136.079h-.065l-5.633-19.638a32.633,32.633,0,0,1-.416-16.2l4.3-18.892h0v-4.544L495.938,287.2C496.848,292.093,488.706,304.026,484.506,309.774Z" transform="translate(-140.545 -76.681)" fill="url(#linear-gradient)"/>
    <path id="Path_174" data-name="Path 174" d="M526.345,462.1s-5.54,13.46-6.952,26.382c-.509,4.651-1.168,8.873-1.813,12.363a112.328,112.328,0,0,0-1.763,23.909l.1,3.361,1.849,8.9s4.343,28.554-7.6,49.618c0,0-7.06,12.593-7.275,18.57l-4.78,1.842-9.661-2.716s4.666-16.721,3.146-28.446l.867-38.107s-6.293-9.554-6.515-26.819l-3.691-47.3Z" transform="translate(-176.384 -169.592)" fill="#fdc2cc"/>
    <path id="Path_175" data-name="Path 175" d="M457.631,452.71s-1.19,18.455-10.313,31.155-11.066,18.24-11.066,18.24l-11.245,22.755a12.994,12.994,0,0,0-1.054,8.5l1.1,5.117s6.085,20.634-.108,36.6l-2.931,30.818H404.867S403.434,580.27,402.8,578.1s-4.128-44.192-4.128-44.192-7.167-9.769-.545-24.863c0,0,14.986-56.462,19-55.48S457.631,452.71,457.631,452.71Z" transform="translate(-151.756 -166.932)" fill="#fdc2cc"/>
    <g id="Group_2" data-name="Group 2" transform="translate(268.528 285.779)" opacity="0.1">
      <path id="Path_176" data-name="Path 176" d="M433.189,538.479l-1.1-5.117a12.951,12.951,0,0,1,1.054-8.5l11.238-22.755s1.949-5.533,11.073-18.24c8.765-12.184,10.206-29.729,10.306-31.076l1.742-.079s-1.19,18.455-10.313,31.155-11.066,18.24-11.066,18.24l-11.245,22.755a12.994,12.994,0,0,0-1.054,8.5l1.1,5.117s6.085,20.634-.107,36.6l-2.931,30.818H430.15l2.931-30.818C439.267,559.113,433.189,538.479,433.189,538.479Z" transform="translate(-430.15 -452.71)"/>
    </g>
    <path id="Path_177" data-name="Path 177" d="M507.028,605.205c.215-5.977,7.275-18.57,7.275-18.57,11.948-21.064,7.6-49.618,7.6-49.618l-1.849-8.9-.108-3.361a112.8,112.8,0,0,1,1.77-23.909c.638-3.49,1.3-7.712,1.813-12.363,1.355-12.442,6.536-25.379,6.923-26.325l1.763-.057s-5.54,13.46-6.952,26.382c-.509,4.651-1.168,8.873-1.813,12.363a112.328,112.328,0,0,0-1.763,23.909l.1,3.361,1.849,8.9s4.343,28.554-7.6,49.618c0,0-7.06,12.593-7.275,18.57l-4.78,1.842L503,606.8Z" transform="translate(-182.26 -169.592)" opacity="0.1"/>
    <path id="Path_178" data-name="Path 178" d="M496.577,660.355a8.3,8.3,0,0,0,7.955-.975,25.507,25.507,0,0,0-.645,14.334c1.949,7.812-18.247-6.3-18.247-6.3l4.35-9.855S491.582,660.685,496.577,660.355Z" transform="translate(-177.342 -224.964)" fill="#d39999"/>
    <path id="Path_179" data-name="Path 179" d="M498.068,660.784a8.056,8.056,0,0,0,6.415-1.433,25.508,25.508,0,0,0-.645,14.334c1.949,7.812-18.247-6.3-18.247-6.3l4.35-9.855a6.174,6.174,0,0,0,4.931,2.774C495.918,660.433,497.007,660.583,498.068,660.784Z" transform="translate(-177.328 -224.955)" opacity="0.1"/>
    <path id="Path_180" data-name="Path 180" d="M381.49,333.236h8.436V285.36l-6.329-1.14Z" transform="translate(-108.074 -80.512)" fill="#fdc2cc"/>
    <path id="Path_181" data-name="Path 181" d="M381.49,333.236h8.436V285.36l-6.329-1.14Z" transform="translate(-108.074 -80.512)" opacity="0.05"/>
    <path id="Path_182" data-name="Path 182" d="M485.976,666.269s5.318-.323,7.712,4.451l2.931,2.286,1.433-3.368a27.987,27.987,0,0,1,3.361,18.133s.437,3.039-4.014,4.451c0,0-2.279,1.089-1.742,5.21s-8.034,10.206-19.215,7.712c0,0-9.776.215-10.966-2.064s.76-8.364.76-8.364,4.014-6.364,5.863-8.722c0,0,4.773-9.84,5.318-14.4S483.152,663.775,485.976,666.269Z" transform="translate(-171.521 -227.187)" fill="#7e5659"/>
    <path id="Path_183" data-name="Path 183" d="M425.653,669.41l.086-6.744s-9.711,2.781-17.574-.366c0,0,.659,6.78-.43,7.7s3.641,9.661,3.641,9.661l5.282,5.54,9.081-3.311,2.465-7.762S426.306,669.41,425.653,669.41Z" transform="translate(-155.226 -226.307)" fill="#d39999"/>
    <path id="Path_184" data-name="Path 184" d="M425.653,669.41l.086-6.744s-9.711,2.781-17.574-.366c0,0,.659,6.78-.43,7.7s3.641,9.661,3.641,9.661l5.282,5.54,9.081-3.311,2.465-7.762S426.306,669.41,425.653,669.41Z" transform="translate(-155.226 -226.307)" opacity="0.1"/>
    <path id="Path_185" data-name="Path 185" d="M393.057,668.807s5.16.595,4.508,7.167.272,0,.272,0,5.483,2.222,7.432,5.318,5.483-2.766,5.734-4.451,2.458-2.372,2.458-2.372,8.6,16,7.1,20.4-20.032,5.426-20.032,5.426-3.361-1.9-11.13,4.021-23.881,1.434-23.881,1.434-13.137-5.483-5.16-11.467,13.41-5.11,13.41-5.11l11.89-11.467S387.223,668.484,393.057,668.807Z" transform="translate(-141.121 -228.148)" fill="#7e5659"/>
    <path id="Path_186" data-name="Path 186" d="M472.8,140.757c3.283,1.985,5.619,5.225,8.73,7.468,4.429,3.2,10.371,4.393,13.782,8.665,2.867,3.634,3.247,8.722,2.473,13.309s-2.516,8.959-3.361,13.531-.667,9.64,2.057,13.4a2.974,2.974,0,0,0,1.312,1.161,4.3,4.3,0,0,0,2.007,0c4.644-.559,9.1,2.759,11.181,6.952s2.25,9.059,2.035,13.732c-.179,3.834-.609,7.748-2.293,11.195-2.867,5.863-8.851,9.489-14.757,12.263a114.013,114.013,0,0,1-11.783,4.759c-2.752.939-5.669,1.777-8.536,1.283-4.909-.846-8.385-5.3-13.044-7.06-3.82-1.433-8.056-.917-12.12-.559-3.462.3-7.425.3-9.8-2.229-3.06-3.254-1.684-8.493-.122-12.671a9.031,9.031,0,0,1-6.379-14.75c1.484-1.806,3.842-3.913,2.688-5.949a4,4,0,0,0-1.548-1.355c-4.687-2.673-11.13-3.741-13.1-8.758-1.269-3.232-.036-6.88,1.562-9.955s3.619-6.071,4.028-9.511c.581-4.859-2.15-9.855-.767-14.542a14.579,14.579,0,0,1,3.369-5.354,46.356,46.356,0,0,1,15.13-11.066c5.669-2.594,11.36-3.175,17.352-4.444C466.426,139.517,469.4,138.707,472.8,140.757Z" transform="translate(-159.225 -78.19)" fill="#865a61"/>
    <path id="Path_187" data-name="Path 187" d="M442.065,242.227s-13.754-.717-16.355,11,5.64,28.518,5.64,28.518Z" transform="translate(-160.22 -107.301)" fill="#fdc2cc"/>
    <path id="Path_188" data-name="Path 188" d="M442.065,242.227s-13.754-.717-16.355,11,5.64,28.518,5.64,28.518Z" transform="translate(-160.22 -107.301)" opacity="0.05"/>
    <path id="Path_189" data-name="Path 189" d="M436.51,265.86l5.21,4.128,24.325,1.082,15.173-10.421,15.445-26.518c-9.446-2.408-13.259-8.923-14.678-15.051a32.911,32.911,0,0,1-.308-12.55s-24.755-12.815-21.716,7.167a26.682,26.682,0,0,1,.229,7.432c-1.433,11.711-12.808,9.511-12.808,9.511l-4.358,6.73-5.017,16.484Z" transform="translate(-163.424 -96.045)" fill="#fdc2cc"/>
    <path id="Path_190" data-name="Path 190" d="M469.128,213.76a26.682,26.682,0,0,1,.229,7.432,21.953,21.953,0,0,0,21.824-2.043,32.912,32.912,0,0,1-.308-12.55S466.1,193.785,469.128,213.76Z" transform="translate(-172.592 -96.064)" opacity="0.1"/>
    <circle id="Ellipse_48" data-name="Ellipse 48" cx="21.931" cy="21.931" r="21.931" transform="translate(283.966 82.377)" fill="#fdc2cc"/>
    <path id="Path_191" data-name="Path 191" d="M451.668,272.668c.523.036,1.054.086,1.577.136,2.867.287,14.886.932,21.731-7.239,7.654-9.145,17.846-20.441,18.262-20.9l10.371,3.139s-8.206-2.924-13.675,12.342a15.846,15.846,0,0,0,5.375,18.2,16.485,16.485,0,0,0,6.78,2.867.036.036,0,0,1,0,.036v6.7h0l-4.243,18.634a32.418,32.418,0,0,0,.4,16l6.45,22.863v.036c-.975.674-41.118,27.952-67.93,9.124.1-.817,3.412-27.651,1.118-40.781a90.946,90.946,0,0,1-1.2-10.149c0-.086,0-.165,0-.251a11.468,11.468,0,0,0-3.928-7.762c-2.415-2.15-5.691-7.884-2.458-23.107a55.964,55.964,0,0,1,3.584-10.944l8.988-20.319a.036.036,0,0,1,.036,0l8.285.165v.05c-.717.9-10.328,12.9-11.367,20.634C438.8,269.508,437.542,271.765,451.668,272.668Z" transform="translate(-161.281 -107.039)" fill="#d39999"/>
    <path id="Path_192" data-name="Path 192" d="M526.95,253.821s8.106,6.952,11.288,22.727,10.313,41.985,10.313,41.985S551.419,330,541.6,341.259s-16.355,20.125-16.355,20.125l-6.45,9.525a8.092,8.092,0,0,1-4.659,3.29c-2.953.781-7.475,1.34-11.4-.81a6.644,6.644,0,0,1-2.9-8.385l1.4-3.333s-13.316,8.4-14.47,3.763,15.488-9.26,15.488-9.26,13.754-2.315,16.484-8.83c0,0,14.764-18.964,13.617-25.479l-14.3-38.2s-17.746-2.351-11.661-22.383S526.95,253.821,526.95,253.821Z" transform="translate(-177.642 -109.485)" fill="#fdc2cc"/>
    <path id="Path_193" data-name="Path 193" d="M423.827,435.253s32.574,6.515,40.243,5.648l.824,2.752s12.37,2.766,40.315-1.67q2.738-.43,5.691-.968l.652-.115s.387-2.071.717-5.6c.674-8.013.91-23.53-4.73-39.419L502.83,381.4s-29.048,17.416-48.285,15.811c-1.713-.143-3.426-.28-5.139-.344-3.949-.143-10.034,0-14.033-3.182l-8.342,1.433v23.766a28.532,28.532,0,0,1-1.885,10.149c-.179.473-.366.939-.573,1.433A7.242,7.242,0,0,0,423.827,435.253Z" transform="translate(-159.786 -146.73)" fill="#7e5659"/>
    <path id="Path_194" data-name="Path 194" d="M481.19,457.615V465s14.234,3.182,46.658-2.752c0,0,.387-2.071.717-5.6C518.581,458.21,491.145,462.051,481.19,457.615Z" transform="translate(-176.081 -168.045)" opacity="0.1"/>
    <path id="Path_195" data-name="Path 195" d="M423.827,454.092s32.574,6.515,40.243,5.648l.824,2.752v-7.353c-3.705,1.534-30.195-4.845-39.785-7.239-.179.473-.365.939-.573,1.433A7.334,7.334,0,0,0,423.827,454.092Z" transform="translate(-159.786 -165.569)" opacity="0.1"/>
    <path id="Path_196" data-name="Path 196" d="M534.07,443.17l2.415,14.979q2.738-.43,5.691-.968c-.717-4.379-2.4-14.334-1.949-16.04l-3.039-2.6Z" transform="translate(-191.062 -162.917)" fill="#7e5659"/>
    <path id="Path_197" data-name="Path 197" d="M534.07,443.17l2.415,14.979q2.738-.43,5.691-.968c-.717-4.379-2.4-14.334-1.949-16.04l-3.039-2.6Z" transform="translate(-191.062 -162.917)" opacity="0.1"/>
    <g id="Group_3" data-name="Group 3" transform="translate(274.154 234.684)" opacity="0.05">
      <path id="Path_198" data-name="Path 198" d="M456.828,402.066c-1.713-.143-3.419-.28-5.139-.344-3.834-.136-9.7,0-13.689-2.938l1.4-.244c3.992,3.175,10.084,3.039,14.033,3.182,1.713.065,3.426.2,5.139.344.559.05,1.132.079,1.713.093a32.347,32.347,0,0,1-3.455-.093Z" transform="translate(-438 -386.27)"/>
      <path id="Path_199" data-name="Path 199" d="M524.1,441.989q2.745-.43,5.691-.968l.652-.115s.38-2.071.717-5.6c.674-8.013.91-23.53-4.737-39.419l-4.429-13.617c.946-.53,1.433-.846,1.433-.846l4.709,14.478c5.64,15.889,5.4,31.406,4.73,39.419a52.928,52.928,0,0,1-.717,5.6l-.652.115q-2.946.538-5.691.968a178.851,178.851,0,0,1-29.292,2.516A183.567,183.567,0,0,0,524.1,441.989Z" transform="translate(-454.575 -381.42)"/>
      <path id="Path_200" data-name="Path 200" d="M477.239,464.42v.079H476.3C476.666,464.47,476.967,464.449,477.239,464.42Z" transform="translate(-448.85 -404.933)"/>
    </g>
    <ellipse id="Ellipse_49" data-name="Ellipse 49" cx="1.226" cy="2.53" rx="1.226" ry="2.53" transform="translate(345.839 278.031)" fill="#d39999"/>
    <path id="Path_201" data-name="Path 201" d="M428.921,363.3c1.978-14.736,5.483-23.494,7.325-26.92.079.473.265,1.985.344,2.458.38,2.15.05,4.866.165,7.6l-1.842,33.384,2.465,10.421c2.315,8.249-6.264,1.734-6.264,1.734-1.777,3.913-5.017,3.476-5.017,3.476l-.444-5.977a51.6,51.6,0,0,1,1.5-16.771,81.4,81.4,0,0,0,1.77-9.41Z" transform="translate(-160.307 -133.976)" fill="#fdc2cc"/>
    <path id="Path_202" data-name="Path 202" d="M428.921,363.3c1.978-14.736,5.483-23.494,7.325-26.92.079.473.265,1.985.344,2.458.38,2.15.05,4.866.165,7.6l-1.842,33.384,2.465,10.421c2.315,8.249-6.264,1.734-6.264,1.734-1.777,3.913-5.017,3.476-5.017,3.476l-.444-5.977a51.6,51.6,0,0,1,1.5-16.771,81.4,81.4,0,0,0,1.77-9.41Z" transform="translate(-160.307 -133.976)" opacity="0.05"/>
    <path id="Path_203" data-name="Path 203" d="M529.2,393.161c-1.562,2.014-2.415,3.175-2.415,3.175l-6.45,9.525a8.077,8.077,0,0,1-4.651,3.29c-2.953.781-7.482,1.34-11.4-.81a6.629,6.629,0,0,1-2.9-8.385l1.433-3.333s-13.316,8.4-14.478,3.77,15.488-9.267,15.488-9.267,13.754-2.315,16.484-8.83c0,0,1.2-1.548,2.867-3.906" transform="translate(-178.09 -145.877)" fill="#fdc2cc"/>
    <path id="Path_204" data-name="Path 204" d="M524.985,417.136s-15.768-1.527-20.734-10.536L502,414.011s16.484,11.41,20.3,9.934Z" transform="translate(-181.977 -153.869)" fill="#7e5659"/>
    <path id="Path_205" data-name="Path 205" d="M524.985,417.136s-15.768-1.527-20.734-10.536L502,414.011s16.484,11.41,20.3,9.934Z" transform="translate(-181.977 -153.869)" opacity="0.1"/>
    <path id="Path_206" data-name="Path 206" d="M431.444,415.44s-5.512,1.949-6.594.867l2.48,4.558,4.68-3.584Z" transform="translate(-160.121 -156.373)" fill="#7e5659"/>
    <path id="Path_207" data-name="Path 207" d="M431.444,415.44s-5.512,1.949-6.594.867l2.48,4.558,4.68-3.584Z" transform="translate(-160.121 -156.373)" opacity="0.1"/>
    <path id="Path_208" data-name="Path 208" d="M424.815,400.215V390.69l-2.265,9.754Z" transform="translate(-119.706 -110.674)" opacity="0.1"/>
    <path id="Path_209" data-name="Path 209" d="M492.686,175.188a8.459,8.459,0,0,1-5.906,3.111,46.717,46.717,0,0,1-6.866,0c-3.584-.065-7.411.487-10.356,2.6a26.761,26.761,0,0,0-4.752,5.017c-4.444,5.433-10.614,10.507-17.61,9.941a4.544,4.544,0,0,1-3.268-1.383,5.182,5.182,0,0,1-.839-2.967,68.262,68.262,0,0,1,.423-13.417,28.116,28.116,0,0,1,2.035-8,27.05,27.05,0,0,1,4.866-6.959,29.814,29.814,0,0,1,8.507-6.816,15.24,15.24,0,0,1,10.636-1.369c4.186,1.14,7.454,4.415,11.467,6.106C485.576,163,497.7,168.121,492.686,175.188Z" transform="translate(-165.244 -82.454)" opacity="0.1"/>
    <path id="Path_210" data-name="Path 210" d="M492.686,173.97a8.467,8.467,0,0,1-5.906,3.118,45.738,45.738,0,0,1-6.866,0c-3.584-.057-7.411.495-10.356,2.6a27.207,27.207,0,0,0-4.752,5.017c-4.444,5.425-10.614,10.507-17.61,9.941a4.544,4.544,0,0,1-3.268-1.383,5.189,5.189,0,0,1-.839-2.974,68.205,68.205,0,0,1,.423-13.41,28.117,28.117,0,0,1,2.035-8,27.049,27.049,0,0,1,4.866-6.959,29.814,29.814,0,0,1,8.507-6.816,15.241,15.241,0,0,1,10.636-1.369c4.186,1.14,7.454,4.415,11.467,6.106C485.576,161.779,497.7,166.911,492.686,173.97Z" transform="translate(-165.244 -82.112)" fill="#865a61"/>
    <path id="Path_211" data-name="Path 211" d="M384.215,344.56l-.057,2.623-.588-2.508Z" transform="translate(-108.663 -97.606)" fill="#fdc2cc"/>
    <path id="Path_212" data-name="Path 212" d="M384.215,344.56l-.057,2.623-.588-2.508Z" transform="translate(-108.663 -97.606)" opacity="0.05"/>
    <g id="Group_4" data-name="Group 4" transform="translate(327.117 141.039)" opacity="0.05">
      <path id="Path_213" data-name="Path 213" d="M515.762,260.12c-6.085,20.032,11.661,22.383,11.661,22.383l14.263,38.222c1.154,6.515-13.617,25.479-13.617,25.479-1.025,2.437-3.584,4.3-6.4,5.64a9.955,9.955,0,0,0,3.8-4.164s14.764-18.964,13.617-25.479l-14.255-38.222s-17.746-2.351-11.661-22.383c2.036-6.694,5.017-9.74,8.063-10.837C519.138,252.444,517.21,255.354,515.762,260.12Z" transform="translate(-511.897 -250.76)"/>
    </g>
    <g id="Group_5" data-name="Group 5" transform="translate(267.735 134.238)" opacity="0.1">
      <path id="Path_214" data-name="Path 214" d="M517.7,289.22a15.051,15.051,0,0,0,2.867,2.723,16.4,16.4,0,0,0,6.78,2.867h0v.717a16.363,16.363,0,0,1-6.157-2.731A15.052,15.052,0,0,1,517.7,289.22Z" transform="translate(-454.159 -254.854)"/>
      <path id="Path_215" data-name="Path 215" d="M439.752,326.7v.251a89.486,89.486,0,0,0,1.2,10.149c2.15,12.392-.667,37-1.075,40.4-.229-.151-.459-.3-.717-.459h0c.1-.817,3.412-27.651,1.118-40.781a91.165,91.165,0,0,1-1.2-10.149v-.251a11.088,11.088,0,0,0-1.928-5.5,11.245,11.245,0,0,1,2.6,6.336Z" transform="translate(-431.34 -263.676)"/>
      <path id="Path_216" data-name="Path 216" d="M450.686,242.273l-7.031-.136a.036.036,0,0,0-.036,0l-8.988,20.319a55.814,55.814,0,0,0-3.584,10.944c-2.616,12.292-.975,18.412,1.025,21.437-2.25-2.652-4.573-8.7-1.677-22.3a56.031,56.031,0,0,1,3.584-10.951l8.988-20.311,8.285.158v.057A4.482,4.482,0,0,1,450.686,242.273Z" transform="translate(-429.043 -241.27)"/>
      <path id="Path_217" data-name="Path 217" d="M533.15,250.36h0Z" transform="translate(-458.536 -243.845)"/>
      <path id="Path_218" data-name="Path 218" d="M505.609,249.017l-7.017-2.15h0c-.416.466-10.607,11.754-18.262,20.9-6.845,8.17-18.842,7.533-21.731,7.246-.523-.057-1.054-.1-1.577-.136-7.884-.5-10.951-1.433-11.983-3.419,1.476,1.433,4.716,2.15,11.331,2.551.523.036,1.054.079,1.577.129,2.867.294,14.886.932,21.731-7.239,7.654-9.145,17.846-20.433,18.262-20.9h0l10.249,3.1A6.328,6.328,0,0,0,505.609,249.017Z" transform="translate(-433.575 -242.61)"/>
    </g>
    <path id="Path_219" data-name="Path 219" d="M408.5,682.778s-9.919,2.709-11.833-1.548" transform="translate(-152.137 -231.669)" opacity="0.1"/>
    <path id="Path_220" data-name="Path 220" d="M495.452,679.907s-11.532,2.967-14.162-1.627" transform="translate(-176.11 -230.834)" opacity="0.1"/>
    <path id="Path_221" data-name="Path 221" d="M671.849,587.315s-1.433-5.734-2.7-11.388c-.265-3.541-.889-8.135-1.154-10.034v-.229a3.046,3.046,0,0,0-.81-2.078c.717-2.064,3.318-9.919,2.831-12.184-.559-2.609-2.566-8.973-4.945-11.073a6.372,6.372,0,0,0-3.132-2.473,8.256,8.256,0,0,0-6.966.559l-12.1,6.787c-4.852-.717-8.787-1.269-8.787-1.269s-3-.358-6.759-.717c-1.168-2.781-5.017-11.188-9.009-12.521-4.3-1.433-9.317.509-10.414.96h-.057l-.143.057h0c-7.884,3.648-6.966,19.093-6.665,22.469a56.023,56.023,0,0,1-4.745,5.282c-2.7,2.379-3.54,8.6-1.025,9.883,1.19.609,2.867,1.333,4.358,1.928-6.823,14.513-18.369,43.046-8.027,51.151,14.062,11.016,40.408,14.678,49.453,11.016a1.434,1.434,0,0,0,.717-.05s14.657-3.49,18.082-7.4a25.349,25.349,0,0,0,5.125-11.037,21.444,21.444,0,0,0,6.88-12.034A37.087,37.087,0,0,0,671.849,587.315Zm-9.167-31.291.351-1.734.581.323c-.093.48-.194.975-.323,1.484l-.545,3.34Zm-2.759-14.435c.624.416,4.759,3.49,3.935,11.338a3.783,3.783,0,0,0-.229-.889c-.179-1.125-.989-2.652-3.784-3.583a61.094,61.094,0,0,0-7.31-1.627A24.219,24.219,0,0,1,659.923,541.589Zm-41.1.817c-3.168-.244-5.662-.344-6.006-.1h-.05a2.867,2.867,0,0,0-1.2.151,9.2,9.2,0,0,0-3.4,1.591c1.433-8.02,5.619-8.694,6.529-8.744a22.216,22.216,0,0,1,4.135,7.1Zm45.54,63.615c-.437-6.551-.839-16.785-1.054-22.748l.365-.057a9.53,9.53,0,0,0,1.219-.244c.4,3.856,1.118,8.436,2.358,11.41C668.839,598.223,666.352,603.054,664.36,606.021Z" transform="translate(-206.191 -188.877)" fill="url(#linear-gradient-2)"/>
    <path id="Path_222" data-name="Path 222" d="M628.56,506.277l-8.171-2.537-8.808,3.175-.631,5.533,4.35,2.817,6.9-.229,6.085-2.86,1.039-5.261Z" transform="translate(-173.078 -142.7)" fill="#cd939c"/>
    <path id="Path_223" data-name="Path 223" d="M628.56,506.277l-8.171-2.537-8.808,3.175-.631,5.533,4.35,2.817,6.9-.229,6.085-2.86,1.039-5.261Z" transform="translate(-173.078 -142.7)" opacity="0.2"/>
    <path id="Path_224" data-name="Path 224" d="M607.491,555.966s-2.229-19.136,6.608-23.006c0,0,4.723.237,6.78,3.627,0,0-6.45-.358-6.974,13.073Z" transform="translate(-211.79 -189.666)" fill="#f6c6cd"/>
    <path id="Path_225" data-name="Path 225" d="M607.491,555.966s-2.229-19.136,6.608-23.006c0,0,4.723.237,6.78,3.627,0,0-6.45-.358-6.974,13.073Z" transform="translate(-211.79 -189.666)" opacity="0.1"/>
    <path id="Path_226" data-name="Path 226" d="M609.532,555.5s-6.809,9.081-9.446,11.467-3.447,8.536-1,9.8,7.167,3.089,7.167,3.089Z" transform="translate(-209.065 -196.051)" fill="#cd939c"/>
    <path id="Path_227" data-name="Path 227" d="M609.532,555.5s-6.809,9.081-9.446,11.467-3.447,8.536-1,9.8,7.167,3.089,7.167,3.089Z" transform="translate(-209.065 -196.051)" opacity="0.05"/>
    <path id="Path_228" data-name="Path 228" d="M635.992,544.724s-4.444-11.711-9.116-13.295-10.335,1.039-10.335,1.039,6.88-.717,11.1,11.346Z" transform="translate(-214.425 -189.088)" fill="#f6c6cd"/>
    <path id="Path_229" data-name="Path 229" d="M694.294,568.273s3.462-9.991,2.917-12.578-2.494-8.894-4.809-10.98-5.081,1.175-5.081,1.175,5.949,3.583,3.361,14.435l-.774,4.816Z" transform="translate(-234.476 -192.798)" fill="#f6c6cd"/>
    <path id="Path_230" data-name="Path 230" d="M694.294,568.273s3.462-9.991,2.917-12.578-2.494-8.894-4.809-10.98-5.081,1.175-5.081,1.175,5.949,3.583,3.361,14.435l-.774,4.816Z" transform="translate(-234.476 -192.798)" opacity="0.1"/>
    <path id="Path_231" data-name="Path 231" d="M661.8,549.674l13.546-7.748a7.884,7.884,0,0,1,6.78-.552,6.186,6.186,0,0,1,3.046,2.444s-6.536-.366-13.8,8.171Z" transform="translate(-227.247 -191.903)" fill="#f6c6cd"/>
    <path id="Path_232" data-name="Path 232" d="M692.667,589.823s.365,12.342,2.788,18.276-4.845,14.284-4.845,14.284l1.333,7.167a20.634,20.634,0,0,0,7.991-12.951,37.447,37.447,0,0,0,0-15.488s-5.017-20.125-4.3-22.275S692.667,589.823,692.667,589.823Z" transform="translate(-235.408 -202.595)" fill="#f6c6cd"/>
    <path id="Path_233" data-name="Path 233" d="M692.667,589.823s.365,12.342,2.788,18.276-4.845,14.284-4.845,14.284l1.333,7.167a20.634,20.634,0,0,0,7.991-12.951,37.447,37.447,0,0,0,0-15.488s-5.017-20.125-4.3-22.275S692.667,589.823,692.667,589.823Z" transform="translate(-235.408 -202.595)" opacity="0.1"/>
    <path id="Path_234" data-name="Path 234" d="M683.08,564s1.089,6.293-11.74,3.512l-8.6,75.111s14.255-3.462,17.588-7.332,5.805-11.26,5.017-13.918-1.785-33.162-1.785-33.162Z" transform="translate(-227.513 -198.459)" fill="#cd939c"/>
    <path id="Path_235" data-name="Path 235" d="M605.086,575.89s-25.665,48.328-11.983,59.25,39.3,14.556,48.1,10.923c0,0,4.071,1.089,3.462-11.618s4.723-48.177,4.723-48.177Z" transform="translate(-206.648 -201.827)" fill="#cd939c"/>
    <path id="Path_236" data-name="Path 236" d="M606.662,578.9S582.58,624.318,595.4,634.581s36.946,13.675,45.2,10.263c0,0,3.827,1.025,3.254-10.923s4.436-45.267,4.436-45.267Z" transform="translate(-207.37 -202.68)" fill="#f6c6cd"/>
    <path id="Path_237" data-name="Path 237" d="M686.112,597.966c-.989.717-6.63-1-6.63-1-6.1-.423-3.928-10.93-2.824-15.108.279-1.039.487-1.684.487-1.684,2.867,3.634,7.97,2.086,7.97,2.086s.151,1.168.351,2.867C685.99,589.537,686.821,597.471,686.112,597.966Z" transform="translate(-231.089 -203.04)" opacity="0.1"/>
    <path id="Path_238" data-name="Path 238" d="M686.362,597.486c-.982.717-6.622-1-6.622-1-6.106-.43-3.935-10.937-2.824-15.108.272-1.039.48-1.691.48-1.691,2.867,3.641,7.97,2.093,7.97,2.093s.151,1.168.358,2.867C686.24,589.036,687.072,596.97,686.362,597.486Z" transform="translate(-231.161 -202.904)" fill="#f6c6cd"/>
    <path id="Path_239" data-name="Path 239" d="M686.362,597.849c-.982.717-6.622-1-6.622-1-6.106-.43-3.935-10.93-2.824-15.108.272-1.039.48-1.684.48-1.684,2.867,3.634,7.97,2.086,7.97,2.086s.151,1.168.358,2.867C686.24,589.406,687.072,597.333,686.362,597.849Z" transform="translate(-231.161 -203.009)" opacity="0.05"/>
    <path id="Path_240" data-name="Path 240" d="M686.238,584.65c-2.781-.351-7.045-2.379-8.808-3.268.272-1.039.48-1.691.48-1.691,2.867,3.641,7.97,2.093,7.97,2.093S686.031,582.951,686.238,584.65Z" transform="translate(-231.675 -202.904)" opacity="0.1"/>
    <path id="Path_241" data-name="Path 241" d="M685.121,581.2s-6.931,18.061,4.716,15.975c0,0,5.476-.573,5.447-4.723s-1.362-13.281-1.362-13.281Z" transform="translate(-233.274 -202.757)" fill="#f6c6cd"/>
    <path id="Path_242" data-name="Path 242" d="M678.5,574.319s-3.526,14.628,7.762,9.2,4.064-9.2,4.064-9.2l-5.39-3.519Z" transform="translate(-231.831 -200.385)" opacity="0.1"/>
    <path id="Path_243" data-name="Path 243" d="M678.5,574.069s-3.526,14.621,7.762,9.2,4.064-9.2,4.064-9.2l-5.39-3.519Z" transform="translate(-231.831 -200.315)" fill="#cd939c"/>
    <path id="Path_244" data-name="Path 244" d="M680.91,572.2a2.608,2.608,0,0,0-1.577,4.057,9.211,9.211,0,0,1,1.039,4.694,2.15,2.15,0,0,0,1.77,2.279c1.161.208,2.817-.079,4.909-1.906,0,0,4.171-1.555,3.849-3.583s-7.167-6.587-7.167-6.587Z" transform="translate(-232.08 -200.485)" opacity="0.1"/>
    <path id="Path_245" data-name="Path 245" d="M680.91,571.939A2.615,2.615,0,0,0,679.333,576a9.212,9.212,0,0,1,1.039,4.694,2.15,2.15,0,0,0,1.77,2.279c1.161.2,2.817-.086,4.909-1.906,0,0,4.171-1.562,3.849-3.583s-7.167-6.587-7.167-6.587Z" transform="translate(-232.08 -200.414)" fill="#f6c6cd"/>
    <circle id="Ellipse_50" data-name="Ellipse 50" cx="2.129" cy="2.129" r="2.129" transform="translate(451.052 374.6)" opacity="0.1"/>
    <circle id="Ellipse_51" data-name="Ellipse 51" cx="2.129" cy="2.129" r="2.129" transform="translate(451.052 374.421)" fill="#cd939c"/>
    <path id="Path_246" data-name="Path 246" d="M638.824,550.1s-20.261-2.508-21.293-1.734c0,0-10.751,1.835-10.751,21.9,0,0-.222,11.525,21.946,17.072,0,0,17.789,1.562,23.594-5.49s2.924-18.914,2.924-18.914,2.315-9.066,13.066-2.8c0,0,1.125-3.583-3.727-5.3S638.824,550.1,638.824,550.1Z" transform="translate(-211.66 -193.987)" opacity="0.1"/>
    <path id="Path_247" data-name="Path 247" d="M638.824,549.594s-20.261-2.508-21.293-1.742c0,0-10.751,1.835-10.751,21.9,0,0-.222,11.532,21.946,17.079,0,0,17.789,1.562,23.594-5.49s2.924-18.914,2.924-18.914,2.315-9.066,13.066-2.8c0,0,1.125-3.584-3.727-5.3S638.824,549.594,638.824,549.594Z" transform="translate(-211.66 -193.843)" fill="#cd939c"/>
    <path id="Path_248" data-name="Path 248" d="M640.054,549.73s-19.7-2.358-20.7-1.634c0,0-10.435,1.727-10.435,20.613,0,0-.215,10.844,21.329,16.069,0,0,17.294,1.433,22.935-5.168s2.867-17.8,2.867-17.8,2.25-8.536,12.7-2.63c0,0,1.1-3.361-3.583-5.017S640.054,549.73,640.054,549.73Z" transform="translate(-212.266 -193.914)" opacity="0.1"/>
    <path id="Path_249" data-name="Path 249" d="M640.054,549.48s-19.7-2.358-20.7-1.634c0,0-10.435,1.727-10.435,20.605,0,0-.215,10.851,21.329,16.069,0,0,17.294,1.433,22.935-5.167s2.867-17.8,2.867-17.8,2.25-8.536,12.7-2.638c0,0,1.1-3.354-3.583-5.017S640.054,549.48,640.054,549.48Z" transform="translate(-212.266 -193.843)" fill="#f6c6cd"/>
    <path id="Path_250" data-name="Path 250" d="M635.568,593.233s-5.354-2.444-5.626,2.15c0,0-1.813,4.63-1.906,5.175s.272,5.261,4.451,5.081a6.45,6.45,0,0,0,5.626-3.44s.91-5.074,2.15-6.164-.91-2.15-1.727-2.15A17.536,17.536,0,0,1,635.568,593.233Z" transform="translate(-217.678 -206.557)" fill="#cd939c"/>
    <path id="Path_251" data-name="Path 251" d="M634.558,592.223s-5.354-2.444-5.626,2.15c0,0-1.813,4.63-1.906,5.175s.272,5.261,4.451,5.081a6.45,6.45,0,0,0,5.626-3.455s.9-5.081,2.15-6.171-.91-2.15-1.727-2.15A17.707,17.707,0,0,1,634.558,592.223Z" transform="translate(-217.392 -206.27)" opacity="0.1"/>
    <path id="Path_252" data-name="Path 252" d="M634.808,591.972s-5.354-2.451-5.626,2.15c0,0-1.813,4.63-1.906,5.175s.272,5.268,4.451,5.089a6.45,6.45,0,0,0,5.626-3.462s.91-5.074,2.15-6.164-.91-2.15-1.727-2.15a17.718,17.718,0,0,1-2.967-.638Z" transform="translate(-217.463 -206.199)" fill="#f6c6cd"/>
    <circle id="Ellipse_52" data-name="Ellipse 52" cx="1.942" cy="1.942" r="1.942" transform="translate(412.73 392.833)" opacity="0.1"/>
    <circle id="Ellipse_53" data-name="Ellipse 53" cx="1.942" cy="1.942" r="1.942" transform="translate(412.73 392.654)" fill="#cd939c"/>
    <path id="Path_253" data-name="Path 253" d="M642.878,615.374s-21.107-2.458-35.835-10.034c0,0-11.618,29.285-2.358,33.384s28.5,10.657,33.9,8.393c0,0,3.225.53,2.15-10.127S642.878,615.374,642.878,615.374Z" transform="translate(-210.051 -210.17)" fill="#cd939c"/>
    <path id="Path_254" data-name="Path 254" d="M641.105,618.519S620,616.2,605.27,609.08c0,0-11.625,27.55-2.365,31.406s28.5,10.034,33.907,7.884c0,0,3.225.5,2.15-9.532S641.105,618.519,641.105,618.519Z" transform="translate(-209.548 -211.23)" opacity="0.1"/>
    <path id="Path_255" data-name="Path 255" d="M641.608,618.269s-21.1-2.315-35.835-9.439c0,0-11.618,27.55-2.358,31.406s28.5,10.034,33.907,7.884c0,0,3.218.5,2.15-9.532S641.608,618.269,641.608,618.269Z" transform="translate(-209.692 -211.159)" fill="#f6c6cd"/>
    <g id="Group_6" data-name="Group 6" transform="translate(398.904 353.718)" opacity="0.1">
      <path id="Path_256" data-name="Path 256" d="M666,553.722c-4.723-1.634-25.085-4.444-25.085-4.444s-19.7-2.365-20.7-1.634c0,0-5.089.839-8.156,7.776,3.089-6.228,7.8-7.009,7.8-7.009,1-.717,20.7,1.634,20.7,1.634s20.333,2.817,25.085,4.451c3.168,1.1,3.713,2.967,3.727,4.085l.251.136S670.723,555.356,666,553.722Z" transform="translate(-612.06 -547.504)"/>
      <path id="Path_257" data-name="Path 257" d="M674.362,566.11a6.21,6.21,0,0,0-.538,1.283s2,7.955-.824,14.463c3.318-6.594,1.154-15.237,1.154-15.237S674.24,566.425,674.362,566.11Z" transform="translate(-629.324 -552.775)"/>
    </g>
  </g>
</svg>
