<svg width="317" height="68" viewBox="0 0 317 68" fill="none" xmlns="http://www.w3.org/2000/svg">
<circle cx="31" cy="37" r="31" fill="#FF455C"/>
<path d="M30.9993 40.0002C28.616 40.0002 26.666 38.0502 26.666 35.6668C26.666 33.2835 28.616 31.3335 30.9993 31.3335C33.3827 31.3335 35.3327 33.2835 35.3327 35.6668C35.3327 38.0502 33.3827 40.0002 30.9993 40.0002ZM43.9994 36.1002C43.9994 28.2352 38.2577 22.6668 30.9993 22.6668C23.741 22.6668 17.9993 28.2352 17.9993 36.1002C17.9993 41.1702 22.2243 47.8868 30.9993 55.9035C39.7744 47.8868 43.9994 41.1702 43.9994 36.1002ZM30.9993 18.3335C40.0993 18.3335 48.3327 25.3102 48.3327 36.1002C48.3327 43.2935 42.5477 51.8085 30.9993 61.6668C19.451 51.8085 13.666 43.2935 13.666 36.1002C13.666 25.3102 21.8993 18.3335 30.9993 18.3335Z" fill="white"/>
<path d="M89.56 55V40.15C89.56 39.38 89.505 38.6467 89.395 37.95C89.285 37.2533 89.065 36.6483 88.735 36.135C88.4417 35.585 88.0383 35.1633 87.525 34.87C87.0117 34.54 86.3517 34.375 85.545 34.375C83.9683 34.375 82.7583 34.9433 81.915 36.08C81.0717 37.18 80.65 38.555 80.65 40.205V55H71.63V13.42H80.65V31.075H80.76C81.3833 29.975 82.3733 29.0033 83.73 28.16C85.0867 27.28 86.7183 26.84 88.625 26.84C90.495 26.84 92.0533 27.17 93.3 27.83C94.5833 28.49 95.61 29.3517 96.38 30.415C97.1867 31.4417 97.755 32.6333 98.085 33.99C98.4517 35.3467 98.635 36.7033 98.635 38.06V55H89.56ZM134.505 41.195C134.505 43.4317 134.102 45.4667 133.295 47.3C132.489 49.0967 131.389 50.6367 129.995 51.92C128.602 53.1667 126.989 54.1383 125.155 54.835C123.322 55.5317 121.36 55.88 119.27 55.88C117.217 55.88 115.255 55.5317 113.385 54.835C111.552 54.1383 109.939 53.1667 108.545 51.92C107.189 50.6367 106.107 49.0967 105.3 47.3C104.494 45.4667 104.09 43.4317 104.09 41.195C104.09 38.9583 104.494 36.9417 105.3 35.145C106.107 33.3483 107.189 31.8267 108.545 30.58C109.939 29.3333 111.552 28.38 113.385 27.72C115.255 27.06 117.217 26.73 119.27 26.73C121.36 26.73 123.322 27.06 125.155 27.72C126.989 28.38 128.602 29.3333 129.995 30.58C131.389 31.8267 132.489 33.3483 133.295 35.145C134.102 36.9417 134.505 38.9583 134.505 41.195ZM125.815 41.195C125.815 40.315 125.669 39.4533 125.375 38.61C125.082 37.7667 124.66 37.0333 124.11 36.41C123.56 35.75 122.882 35.2183 122.075 34.815C121.269 34.4117 120.334 34.21 119.27 34.21C118.207 34.21 117.272 34.4117 116.465 34.815C115.659 35.2183 114.98 35.75 114.43 36.41C113.917 37.0333 113.514 37.7667 113.22 38.61C112.964 39.4533 112.835 40.315 112.835 41.195C112.835 42.075 112.964 42.9367 113.22 43.78C113.514 44.6233 113.935 45.3933 114.485 46.09C115.035 46.75 115.714 47.2817 116.52 47.685C117.327 48.0883 118.262 48.29 119.325 48.29C120.389 48.29 121.324 48.0883 122.13 47.685C122.937 47.2817 123.615 46.75 124.165 46.09C124.715 45.3933 125.119 44.6233 125.375 43.78C125.669 42.9367 125.815 42.075 125.815 41.195ZM140.326 55V13.42H149.456V55H140.326ZM166.388 18.865C166.388 19.5617 166.241 20.2217 165.948 20.845C165.691 21.4317 165.325 21.945 164.848 22.385C164.408 22.825 163.858 23.1733 163.198 23.43C162.575 23.6867 161.915 23.815 161.218 23.815C159.751 23.815 158.523 23.3383 157.533 22.385C156.543 21.395 156.048 20.2217 156.048 18.865C156.048 18.205 156.176 17.5817 156.433 16.995C156.69 16.3717 157.056 15.84 157.533 15.4C158.01 14.96 158.56 14.6117 159.183 14.355C159.806 14.0617 160.485 13.915 161.218 13.915C161.915 13.915 162.575 14.0433 163.198 14.3C163.858 14.5567 164.408 14.905 164.848 15.345C165.325 15.785 165.691 16.3167 165.948 16.94C166.241 17.5267 166.388 18.1683 166.388 18.865ZM156.708 55V27.61H165.728V55H156.708Z" fill="#6C6C6C"/>
<path d="M200.153 55H193.883V51.04H193.773C192.856 52.58 191.573 53.7533 189.923 54.56C188.309 55.3667 186.568 55.77 184.698 55.77C182.681 55.77 180.866 55.4033 179.253 54.67C177.676 53.9 176.319 52.8917 175.183 51.645C174.083 50.3617 173.221 48.8767 172.598 47.19C172.011 45.4667 171.718 43.6333 171.718 41.69C171.718 39.7467 172.029 37.9317 172.653 36.245C173.276 34.5583 174.156 33.0917 175.293 31.845C176.429 30.5983 177.786 29.6267 179.363 28.93C180.939 28.1967 182.663 27.83 184.533 27.83C185.743 27.83 186.824 27.9767 187.778 28.27C188.731 28.5267 189.556 28.8567 190.253 29.26C190.986 29.6633 191.609 30.1033 192.123 30.58C192.636 31.0567 193.058 31.515 193.388 31.955H193.553V13.42H200.153V55ZM178.428 41.69C178.428 42.7167 178.574 43.7433 178.868 44.77C179.198 45.7967 179.674 46.7133 180.298 47.52C180.921 48.3267 181.709 48.9867 182.663 49.5C183.616 50.0133 184.734 50.27 186.018 50.27C187.228 50.27 188.309 50.0317 189.263 49.555C190.216 49.0417 191.023 48.3817 191.683 47.575C192.379 46.7683 192.893 45.87 193.223 44.88C193.589 43.8533 193.773 42.8267 193.773 41.8C193.773 40.7733 193.589 39.7467 193.223 38.72C192.893 37.6933 192.379 36.7767 191.683 35.97C191.023 35.1633 190.216 34.5033 189.263 33.99C188.309 33.4767 187.228 33.22 186.018 33.22C184.734 33.22 183.616 33.4767 182.663 33.99C181.709 34.4667 180.921 35.1083 180.298 35.915C179.674 36.7217 179.198 37.6383 178.868 38.665C178.574 39.655 178.428 40.6633 178.428 41.69ZM224.561 51.645H224.396C223.736 52.8183 222.673 53.79 221.206 54.56C219.739 55.2933 218.071 55.66 216.201 55.66C215.138 55.66 214.019 55.5133 212.846 55.22C211.709 54.9633 210.646 54.5233 209.656 53.9C208.703 53.24 207.896 52.3967 207.236 51.37C206.613 50.3067 206.301 49.005 206.301 47.465C206.301 45.485 206.851 43.9083 207.951 42.735C209.088 41.5617 210.536 40.6633 212.296 40.04C214.056 39.4167 215.999 39.0133 218.126 38.83C220.289 38.61 222.398 38.5 224.451 38.5V37.84C224.451 36.19 223.846 34.98 222.636 34.21C221.463 33.4033 220.051 33 218.401 33C217.008 33 215.669 33.2933 214.386 33.88C213.103 34.4667 212.039 35.1817 211.196 36.025L207.786 32.01C209.289 30.6167 211.013 29.5717 212.956 28.875C214.936 28.1783 216.934 27.83 218.951 27.83C221.298 27.83 223.223 28.16 224.726 28.82C226.266 29.48 227.476 30.3417 228.356 31.405C229.236 32.4683 229.841 33.66 230.171 34.98C230.538 36.3 230.721 37.62 230.721 38.94V55H224.561V51.645ZM224.451 42.955H222.966C221.903 42.955 220.784 43.01 219.611 43.12C218.438 43.1933 217.356 43.395 216.366 43.725C215.376 44.0183 214.551 44.4583 213.891 45.045C213.231 45.595 212.901 46.365 212.901 47.355C212.901 47.9783 213.029 48.51 213.286 48.95C213.579 49.3533 213.946 49.6833 214.386 49.94C214.826 50.1967 215.321 50.38 215.871 50.49C216.421 50.6 216.971 50.655 217.521 50.655C219.794 50.655 221.518 50.05 222.691 48.84C223.864 47.63 224.451 45.98 224.451 43.89V42.955ZM236.32 49.17L250.565 33.88H236.98V28.6H258.43V34.43L244.13 49.61H259.09V55H236.32V49.17ZM283.533 39.16C283.533 38.3167 283.405 37.51 283.148 36.74C282.928 35.97 282.562 35.2917 282.048 34.705C281.535 34.1183 280.875 33.66 280.068 33.33C279.298 32.9633 278.382 32.78 277.318 32.78C275.338 32.78 273.652 33.385 272.258 34.595C270.902 35.7683 270.15 37.29 270.003 39.16H283.533ZM290.133 42.13C290.133 42.4233 290.133 42.7167 290.133 43.01C290.133 43.3033 290.115 43.5967 290.078 43.89H270.003C270.077 44.8433 270.315 45.7233 270.718 46.53C271.158 47.3 271.727 47.9783 272.423 48.565C273.12 49.115 273.908 49.555 274.788 49.885C275.668 50.215 276.585 50.38 277.538 50.38C279.188 50.38 280.582 50.0867 281.718 49.5C282.855 48.8767 283.79 48.0333 284.523 46.97L288.923 50.49C286.32 54.01 282.543 55.77 277.593 55.77C275.54 55.77 273.652 55.4583 271.928 54.835C270.205 54.175 268.702 53.2583 267.418 52.085C266.172 50.9117 265.182 49.4817 264.448 47.795C263.752 46.0717 263.403 44.1283 263.403 41.965C263.403 39.8383 263.752 37.9133 264.448 36.19C265.182 34.43 266.172 32.945 267.418 31.735C268.665 30.4883 270.132 29.535 271.818 28.875C273.542 28.1783 275.393 27.83 277.373 27.83C279.207 27.83 280.893 28.1417 282.433 28.765C284.01 29.3517 285.367 30.25 286.503 31.46C287.64 32.6333 288.52 34.1183 289.143 35.915C289.803 37.675 290.133 39.7467 290.133 42.13Z" fill="#FF455C"/>
</svg>
